<svg version="1.1" id="Layer_1" xmlns="http://www.w3.org/2000/svg" xmlns:xlink="http://www.w3.org/1999/xlink" x="0px" y="0px"
	 width="100%" viewBox="0 0 1086 1201" enable-background="new 0 0 1086 1201" xml:space="preserve">
<path fill="#152A38" opacity="1.000000" stroke="none" 
	d="
M1087.000000,327.000000 
	C1087.000000,619.000000 1087.000000,910.500000 1087.000000,1202.000000 
	C725.000000,1202.000000 363.000000,1202.000000 1.000000,1202.000000 
	C1.000000,801.666687 1.000000,401.333344 1.000000,1.000000 
	C363.000000,1.000000 725.000000,1.000000 1087.000000,1.000000 
	C1087.000000,109.500000 1087.000000,218.000000 1087.000000,327.000000 
M412.500061,19.831619 
	C387.727112,19.498432 362.954559,19.131460 338.181030,18.849361 
	C328.807343,18.742624 319.431305,18.796928 310.056610,18.837132 
	C234.624908,19.160604 159.193069,19.457735 83.761826,19.868450 
	C69.985405,19.943460 56.208096,20.399300 42.438324,20.882458 
	C37.036259,21.072006 31.653774,21.819532 26.065851,22.330931 
	C25.321932,36.152290 24.505342,49.992970 23.855942,63.841492 
	C23.397806,73.611275 23.098324,83.389961 22.849607,93.167763 
	C22.456606,108.617744 21.841461,124.071472 21.896748,139.521561 
	C22.024158,175.127090 22.453764,210.731903 22.867105,246.335770 
	C22.955479,253.947952 23.500412,261.554688 23.825727,269.164307 
	C24.497690,284.882599 25.139469,300.602264 25.844198,316.319122 
	C26.103350,322.098694 26.447348,327.876312 26.890013,333.644287 
	C26.980143,334.818695 27.686449,335.945801 28.233503,337.434296 
	C30.166853,336.057922 31.654493,335.074585 33.060257,333.985565 
	C40.847599,327.952789 49.698128,322.797546 54.059231,313.505096 
	C57.546913,306.073669 59.988472,298.148010 62.837368,290.420685 
	C71.204086,267.726959 79.240257,244.905884 87.965790,222.351288 
	C99.751808,191.885635 117.358673,165.287872 140.806366,142.287247 
	C160.126190,123.335808 182.405029,109.883904 207.770828,101.035461 
	C227.752975,94.065010 248.257263,89.755692 269.349518,88.158241 
	C286.596741,86.851997 303.829102,84.544762 321.087830,84.339073 
	C385.016235,83.577194 448.952576,83.417236 512.886536,83.226028 
	C529.493286,83.176361 546.101013,84.048576 562.710205,84.132202 
	C644.679016,84.544952 726.648621,84.811035 808.617493,85.222710 
	C814.045349,85.249977 819.520569,85.728951 824.884094,86.569794 
	C835.407471,88.219528 845.861633,90.306282 856.355225,92.150673 
	C872.224548,94.939919 887.412048,100.172134 901.571777,107.518425 
	C924.026306,119.168266 943.848328,134.452484 960.549133,153.747437 
	C972.195374,167.202698 982.215942,181.688599 990.575134,197.301712 
	C1003.390991,221.238632 1012.998474,246.555389 1022.090454,272.093964 
	C1028.335815,289.636597 1035.076904,307.003632 1041.715088,324.403809 
	C1042.226196,325.743408 1043.567383,327.582916 1044.713013,327.732422 
	C1052.664917,328.770294 1060.667114,329.422241 1069.331787,330.263916 
	C1069.331787,227.542908 1069.331787,125.295944 1069.331787,23.226694 
	C1058.950806,22.383364 1049.428833,21.287483 1039.878052,20.899361 
	C1018.335510,20.023909 996.779968,18.998829 975.227356,18.944340 
	C940.290222,18.856014 905.351562,19.697817 870.412842,19.760559 
	C847.408569,19.801867 824.403381,18.903837 801.398071,18.877266 
	C706.870422,18.768091 612.342590,18.814589 517.814819,18.874380 
	C512.204956,18.877928 506.596375,19.767765 500.985687,19.786434 
	C471.824097,19.883469 442.661987,19.831619 412.500061,19.831619 
M663.169800,839.417236 
	C660.843628,829.184692 658.629761,818.925171 656.170959,808.724548 
	C647.319458,772.001526 632.407837,737.674744 613.871704,704.951660 
	C598.624268,678.034424 581.679932,652.007751 569.928101,623.283875 
	C565.234253,611.811218 561.474182,599.654785 559.501099,587.451965 
	C557.354980,574.179504 560.361206,560.815918 564.564697,548.005798 
	C573.247925,521.544006 588.289368,498.295227 601.975220,474.354614 
	C612.463379,456.007629 623.329468,437.833282 632.854370,418.989197 
	C647.591431,389.833282 656.062439,358.386047 661.792175,326.460602 
	C666.605469,299.641541 669.295410,272.402130 671.984314,245.255600 
	C673.630615,228.634338 674.006836,211.838669 674.055481,195.118713 
	C674.136292,167.347763 673.497314,139.574692 673.138550,111.802795 
	C673.130737,111.197845 672.846558,110.596458 672.773560,110.312767 
	C654.085449,109.475731 635.721497,108.615829 617.353760,107.845490 
	C607.415100,107.428673 597.472107,107.080978 587.527588,106.850365 
	C570.255005,106.449821 552.980713,106.002579 535.705200,105.897980 
	C526.931885,105.844856 518.153320,106.471947 509.378815,106.833862 
	C493.659943,107.482216 477.932098,107.984009 462.227478,108.885765 
	C449.551544,109.613617 436.893646,110.732750 424.257782,111.982193 
	C422.688904,112.137314 420.099396,114.078194 420.015533,115.328011 
	C418.753296,134.137146 417.349243,152.959503 416.973175,171.798645 
	C416.631897,188.892639 417.330627,206.016220 417.896576,223.115997 
	C418.207611,232.513016 418.776520,241.940613 419.964630,251.260681 
	C421.936279,266.727539 423.903534,282.238129 426.955048,297.514069 
	C431.580200,320.667664 436.391388,343.833466 442.464966,366.636810 
	C451.643250,401.096893 468.140015,432.425507 486.493286,462.784058 
	C500.028503,485.172913 512.841370,507.888519 523.102356,532.044312 
	C534.651550,559.232910 536.047791,586.436523 526.328552,614.413513 
	C519.325500,634.572021 509.064606,653.074280 498.164886,671.199585 
	C483.926544,694.876648 468.809265,718.113037 458.293488,743.724548 
	C450.559631,762.560669 443.753571,781.875916 438.030792,801.416016 
	C429.988373,828.876343 425.139618,857.070740 422.824799,885.635498 
	C421.385468,903.396606 420.149414,921.174194 418.841370,938.945740 
	C418.743683,940.272400 418.836060,941.612000 418.781067,942.943054 
	C418.145660,958.325134 417.098724,973.703186 416.962769,989.089417 
	C416.814178,1005.908691 417.508484,1022.735291 417.825989,1039.558960 
	C417.859772,1041.348145 417.830505,1043.138550 417.830505,1045.110352 
	C427.334534,1046.162964 436.301147,1047.519897 445.317261,1048.080322 
	C465.297119,1049.322266 485.296936,1050.873901 505.297485,1051.011353 
	C539.731201,1051.248169 574.172302,1050.553711 608.609070,1050.148926 
	C627.217590,1049.930298 645.824036,1049.515747 664.430298,1049.139038 
	C665.722412,1049.113037 667.120056,1048.897705 668.255249,1048.337769 
	C669.074341,1047.933594 669.929871,1046.881592 670.090027,1045.995728 
	C670.615662,1043.087769 671.007446,1040.131714 671.137390,1037.180420 
	C671.865723,1020.631531 672.796387,1004.083923 673.092224,987.525757 
	C673.428589,968.701904 673.268982,949.866638 673.121582,931.037903 
	C673.060730,923.260559 672.754639,915.461670 672.055603,907.718201 
	C670.991028,895.924866 669.666870,884.147644 668.118042,872.407715 
	C666.701721,861.671326 664.841064,850.993591 663.169800,839.417236 
M311.430298,1181.168457 
	C318.215363,1181.501831 325.001495,1182.144409 331.785370,1182.121582 
	C408.539185,1181.862671 485.292511,1181.442383 562.046448,1181.221924 
	C576.318176,1181.180908 590.595154,1182.220215 604.864258,1182.103027 
	C674.231445,1181.533569 743.626709,1183.924927 812.965149,1180.187378 
	C821.732239,1179.714722 830.518921,1179.604370 839.285339,1179.121948 
	C843.972046,1178.864014 848.634827,1178.169678 853.556702,1177.645874 
	C849.829041,1171.407715 846.419800,1165.193481 842.445862,1159.364380 
	C841.264160,1157.631226 838.613953,1156.375244 836.432068,1155.949951 
	C830.798767,1154.851685 825.006897,1154.581665 819.357605,1153.547852 
	C802.259827,1150.418945 785.229431,1146.917236 768.116577,1143.876953 
	C750.415955,1140.732422 735.181213,1132.555786 721.133850,1121.768799 
	C708.054199,1111.724976 695.277100,1101.255005 681.810547,1091.761841 
	C675.717468,1087.466431 668.549011,1084.118042 661.373657,1082.093994 
	C653.707764,1079.931763 645.483826,1079.446411 637.458313,1078.925171 
	C622.594421,1077.959839 607.702515,1077.319092 592.812134,1076.916626 
	C586.383911,1076.742798 579.934326,1077.649170 573.488037,1077.807251 
	C529.122742,1078.895630 484.674713,1075.421875 440.386902,1079.972534 
	C432.311676,1080.802368 423.382324,1081.704102 416.676483,1085.667603 
	C404.117310,1093.090576 392.599823,1102.409790 381.186371,1111.607056 
	C362.430908,1126.720947 343.391907,1140.856323 318.632233,1144.684448 
	C296.588440,1148.092896 274.631348,1152.065918 252.654938,1155.898071 
	C251.009369,1156.185181 248.866074,1156.924072 248.062088,1158.168701 
	C244.217484,1164.119995 240.755173,1170.318359 236.547394,1177.464111 
	C261.711395,1179.354614 286.016998,1181.255981 311.430298,1181.168457 
z"/>
<path fill="#EFEFEF" opacity="1.000000" stroke="none" 
	d="
M413.000061,19.831619 
	C442.661987,19.831619 471.824097,19.883469 500.985687,19.786434 
	C506.596375,19.767765 512.204956,18.877928 517.814819,18.874380 
	C612.342590,18.814589 706.870422,18.768091 801.398071,18.877266 
	C824.403381,18.903837 847.408569,19.801867 870.412842,19.760559 
	C905.351562,19.697817 940.290222,18.856014 975.227356,18.944340 
	C996.779968,18.998829 1018.335510,20.023909 1039.878052,20.899361 
	C1049.428833,21.287483 1058.950806,22.383364 1069.331787,23.226694 
	C1069.331787,125.295944 1069.331787,227.542908 1069.331787,330.263916 
	C1060.667114,329.422241 1052.664917,328.770294 1044.713013,327.732422 
	C1043.567383,327.582916 1042.226196,325.743408 1041.715088,324.403809 
	C1035.076904,307.003632 1028.335815,289.636597 1022.090454,272.093964 
	C1012.998474,246.555389 1003.390991,221.238632 990.575134,197.301712 
	C982.215942,181.688599 972.195374,167.202698 960.549133,153.747437 
	C943.848328,134.452484 924.026306,119.168266 901.571777,107.518425 
	C887.412048,100.172134 872.224548,94.939919 856.355225,92.150673 
	C845.861633,90.306282 835.407471,88.219528 824.884094,86.569794 
	C819.520569,85.728951 814.045349,85.249977 808.617493,85.222710 
	C726.648621,84.811035 644.679016,84.544952 562.710205,84.132202 
	C546.101013,84.048576 529.493286,83.176361 512.886536,83.226028 
	C448.952576,83.417236 385.016235,83.577194 321.087830,84.339073 
	C303.829102,84.544762 286.596741,86.851997 269.349518,88.158241 
	C248.257263,89.755692 227.752975,94.065010 207.770828,101.035461 
	C182.405029,109.883904 160.126190,123.335808 140.806366,142.287247 
	C117.358673,165.287872 99.751808,191.885635 87.965790,222.351288 
	C79.240257,244.905884 71.204086,267.726959 62.837368,290.420685 
	C59.988472,298.148010 57.546913,306.073669 54.059231,313.505096 
	C49.698128,322.797546 40.847599,327.952789 33.060257,333.985565 
	C31.654493,335.074585 30.166853,336.057922 28.233503,337.434296 
	C27.686449,335.945801 26.980143,334.818695 26.890013,333.644287 
	C26.447348,327.876312 26.103350,322.098694 25.844198,316.319122 
	C25.139469,300.602264 24.497690,284.882599 23.825727,269.164307 
	C23.500412,261.554688 22.955479,253.947952 22.867105,246.335770 
	C22.453764,210.731903 22.024158,175.127090 21.896748,139.521561 
	C21.841461,124.071472 22.456606,108.617744 22.849607,93.167763 
	C23.098324,83.389961 23.397806,73.611275 23.855942,63.841492 
	C24.505342,49.992970 25.321932,36.152290 26.065851,22.330931 
	C31.653774,21.819532 37.036259,21.072006 42.438324,20.882458 
	C56.208096,20.399300 69.985405,19.943460 83.761826,19.868450 
	C159.193069,19.457735 234.624908,19.160604 310.056610,18.837132 
	C319.431305,18.796928 328.807343,18.742624 338.181030,18.849361 
	C362.954559,19.131460 387.727112,19.498432 413.000061,19.831619 
z"/>
<path fill="#EEEFEF" opacity="1.000000" stroke="none" 
	d="
M663.172974,839.853638 
	C664.841064,850.993591 666.701721,861.671326 668.118042,872.407715 
	C669.666870,884.147644 670.991028,895.924866 672.055603,907.718201 
	C672.754639,915.461670 673.060730,923.260559 673.121582,931.037903 
	C673.268982,949.866638 673.428589,968.701904 673.092224,987.525757 
	C672.796387,1004.083923 671.865723,1020.631531 671.137390,1037.180420 
	C671.007446,1040.131714 670.615662,1043.087769 670.090027,1045.995728 
	C669.929871,1046.881592 669.074341,1047.933594 668.255249,1048.337769 
	C667.120056,1048.897705 665.722412,1049.113037 664.430298,1049.139038 
	C645.824036,1049.515747 627.217590,1049.930298 608.609070,1050.148926 
	C574.172302,1050.553711 539.731201,1051.248169 505.297485,1051.011353 
	C485.296936,1050.873901 465.297119,1049.322266 445.317261,1048.080322 
	C436.301147,1047.519897 427.334534,1046.162964 417.830505,1045.110352 
	C417.830505,1043.138550 417.859772,1041.348145 417.825989,1039.558960 
	C417.508484,1022.735291 416.814178,1005.908691 416.962769,989.089417 
	C417.098724,973.703186 418.145660,958.325134 418.781067,942.943054 
	C418.836060,941.612000 418.743683,940.272400 418.841370,938.945740 
	C420.149414,921.174194 421.385468,903.396606 422.824799,885.635498 
	C425.139618,857.070740 429.988373,828.876343 438.030792,801.416016 
	C443.753571,781.875916 450.559631,762.560669 458.293488,743.724548 
	C468.809265,718.113037 483.926544,694.876648 498.164886,671.199585 
	C509.064606,653.074280 519.325500,634.572021 526.328552,614.413513 
	C536.047791,586.436523 534.651550,559.232910 523.102356,532.044312 
	C512.841370,507.888519 500.028503,485.172913 486.493286,462.784058 
	C468.140015,432.425507 451.643250,401.096893 442.464966,366.636810 
	C436.391388,343.833466 431.580200,320.667664 426.955048,297.514069 
	C423.903534,282.238129 421.936279,266.727539 419.964630,251.260681 
	C418.776520,241.940613 418.207611,232.513016 417.896576,223.115997 
	C417.330627,206.016220 416.631897,188.892639 416.973175,171.798645 
	C417.349243,152.959503 418.753296,134.137146 420.015533,115.328011 
	C420.099396,114.078194 422.688904,112.137314 424.257782,111.982193 
	C436.893646,110.732750 449.551544,109.613617 462.227478,108.885765 
	C477.932098,107.984009 493.659943,107.482216 509.378815,106.833862 
	C518.153320,106.471947 526.931885,105.844856 535.705200,105.897980 
	C552.980713,106.002579 570.255005,106.449821 587.527588,106.850365 
	C597.472107,107.080978 607.415100,107.428673 617.353760,107.845490 
	C635.721497,108.615829 654.085449,109.475731 672.773560,110.312767 
	C672.846558,110.596458 673.130737,111.197845 673.138550,111.802795 
	C673.497314,139.574692 674.136292,167.347763 674.055481,195.118713 
	C674.006836,211.838669 673.630615,228.634338 671.984314,245.255600 
	C669.295410,272.402130 666.605469,299.641541 661.792175,326.460602 
	C656.062439,358.386047 647.591431,389.833282 632.854370,418.989197 
	C623.329468,437.833282 612.463379,456.007629 601.975220,474.354614 
	C588.289368,498.295227 573.247925,521.544006 564.564697,548.005798 
	C560.361206,560.815918 557.354980,574.179504 559.501099,587.451965 
	C561.474182,599.654785 565.234253,611.811218 569.928101,623.283875 
	C581.679932,652.007751 598.624268,678.034424 613.871704,704.951660 
	C632.407837,737.674744 647.319458,772.001526 656.170959,808.724548 
	C658.629761,818.925171 660.843628,829.184692 663.172974,839.853638 
M626.488831,228.138626 
	C587.440369,213.002563 548.454773,197.700836 509.298615,182.848602 
	C499.684418,179.201874 489.675873,175.769028 479.561035,174.459763 
	C464.012024,172.447083 448.809998,176.879364 433.708588,180.330933 
	C431.058350,180.936661 429.059753,182.358475 429.100250,185.854980 
	C429.265015,200.073898 428.779236,214.309341 429.272491,228.513016 
	C429.805389,243.858459 430.631866,259.233673 432.309845,274.488190 
	C433.995483,289.811920 436.201721,305.147980 439.389679,320.222778 
	C446.654907,354.577667 458.828888,387.331238 474.485565,418.700470 
	C484.912994,439.592621 496.062256,460.139008 507.373932,480.571350 
	C518.583313,500.818970 530.399231,520.730835 541.954590,540.786804 
	C544.321655,544.895142 545.952759,545.007446 548.590881,541.023254 
	C553.513184,533.589539 558.223450,526.014709 563.183533,518.606873 
	C585.492859,485.288269 605.668030,450.750275 622.259521,414.216797 
	C628.260559,401.002930 633.883667,387.579834 638.903503,373.966217 
	C647.503906,350.642212 654.669617,326.827209 657.875244,302.104645 
	C660.392944,282.686951 661.863037,263.134003 663.851257,243.646515 
	C664.202271,240.205811 662.796509,238.621445 659.448486,237.693634 
	C648.680237,234.709610 638.001953,231.401016 626.488831,228.138626 
M620.074219,972.428284 
	C617.437378,969.458252 614.696228,966.573608 612.182678,963.502625 
	C603.927368,953.416626 595.290405,943.599548 587.650635,933.062439 
	C573.472229,913.506836 565.568176,891.029663 559.973694,867.826904 
	C555.325684,848.549561 551.863892,828.987305 547.761475,809.575562 
	C547.407043,807.898376 546.189209,806.403687 544.863831,803.840637 
	C543.916138,805.978149 543.382996,806.787231 543.191284,807.670471 
	C538.495728,829.301025 534.091614,850.998596 529.091919,872.558167 
	C524.896729,890.648743 519.000977,908.513123 508.246979,923.597229 
	C494.956207,942.239624 479.876282,959.643982 465.036469,977.130981 
	C455.707489,988.123901 445.331696,998.223633 435.562225,1008.849792 
	C430.907990,1013.912170 426.572540,1019.267639 421.363342,1025.340698 
	C423.955688,1026.001709 425.568939,1026.676392 427.221222,1026.791748 
	C437.931549,1027.539185 448.643280,1028.333618 459.368286,1028.786011 
	C471.800720,1029.310425 484.248749,1029.826416 496.687469,1029.771729 
	C532.622070,1029.613647 568.555969,1029.218750 604.488953,1028.813110 
	C623.595520,1028.597412 642.700867,1028.215210 661.803284,1027.764404 
	C663.886292,1027.715088 665.946716,1026.710693 669.195740,1025.829834 
	C652.352295,1007.503357 636.464600,990.216736 620.074219,972.428284 
z"/>
<path fill="#EFEFEF" opacity="1.000000" stroke="none" 
	d="
M310.938660,1181.168457 
	C286.016998,1181.255981 261.711395,1179.354614 236.547394,1177.464111 
	C240.755173,1170.318359 244.217484,1164.119995 248.062088,1158.168701 
	C248.866074,1156.924072 251.009369,1156.185181 252.654938,1155.898071 
	C274.631348,1152.065918 296.588440,1148.092896 318.632233,1144.684448 
	C343.391907,1140.856323 362.430908,1126.720947 381.186371,1111.607056 
	C392.599823,1102.409790 404.117310,1093.090576 416.676483,1085.667603 
	C423.382324,1081.704102 432.311676,1080.802368 440.386902,1079.972534 
	C484.674713,1075.421875 529.122742,1078.895630 573.488037,1077.807251 
	C579.934326,1077.649170 586.383911,1076.742798 592.812134,1076.916626 
	C607.702515,1077.319092 622.594421,1077.959839 637.458313,1078.925171 
	C645.483826,1079.446411 653.707764,1079.931763 661.373657,1082.093994 
	C668.549011,1084.118042 675.717468,1087.466431 681.810547,1091.761841 
	C695.277100,1101.255005 708.054199,1111.724976 721.133850,1121.768799 
	C735.181213,1132.555786 750.415955,1140.732422 768.116577,1143.876953 
	C785.229431,1146.917236 802.259827,1150.418945 819.357605,1153.547852 
	C825.006897,1154.581665 830.798767,1154.851685 836.432068,1155.949951 
	C838.613953,1156.375244 841.264160,1157.631226 842.445862,1159.364380 
	C846.419800,1165.193481 849.829041,1171.407715 853.556702,1177.645874 
	C848.634827,1178.169678 843.972046,1178.864014 839.285339,1179.121948 
	C830.518921,1179.604370 821.732239,1179.714722 812.965149,1180.187378 
	C743.626709,1183.924927 674.231445,1181.533569 604.864258,1182.103027 
	C590.595154,1182.220215 576.318176,1181.180908 562.046448,1181.221924 
	C485.292511,1181.442383 408.539185,1181.862671 331.785370,1182.121582 
	C325.001495,1182.144409 318.215363,1181.501831 310.938660,1181.168457 
z"/>
<path fill="#162B39" opacity="1.000000" stroke="none" 
	d="
M626.888916,228.178101 
	C638.001953,231.401016 648.680237,234.709610 659.448486,237.693634 
	C662.796509,238.621445 664.202271,240.205811 663.851257,243.646515 
	C661.863037,263.134003 660.392944,282.686951 657.875244,302.104645 
	C654.669617,326.827209 647.503906,350.642212 638.903503,373.966217 
	C633.883667,387.579834 628.260559,401.002930 622.259521,414.216797 
	C605.668030,450.750275 585.492859,485.288269 563.183533,518.606873 
	C558.223450,526.014709 553.513184,533.589539 548.590881,541.023254 
	C545.952759,545.007446 544.321655,544.895142 541.954590,540.786804 
	C530.399231,520.730835 518.583313,500.818970 507.373932,480.571350 
	C496.062256,460.139008 484.912994,439.592621 474.485565,418.700470 
	C458.828888,387.331238 446.654907,354.577667 439.389679,320.222778 
	C436.201721,305.147980 433.995483,289.811920 432.309845,274.488190 
	C430.631866,259.233673 429.805389,243.858459 429.272491,228.513016 
	C428.779236,214.309341 429.265015,200.073898 429.100250,185.854980 
	C429.059753,182.358475 431.058350,180.936661 433.708588,180.330933 
	C448.809998,176.879364 464.012024,172.447083 479.561035,174.459763 
	C489.675873,175.769028 499.684418,179.201874 509.298615,182.848602 
	C548.454773,197.700836 587.440369,213.002563 626.888916,228.178101 
z"/>
<path fill="#162B39" opacity="1.000000" stroke="none" 
	d="
M620.325562,972.679199 
	C636.464600,990.216736 652.352295,1007.503357 669.195740,1025.829834 
	C665.946716,1026.710693 663.886292,1027.715088 661.803284,1027.764404 
	C642.700867,1028.215210 623.595520,1028.597412 604.488953,1028.813110 
	C568.555969,1029.218750 532.622070,1029.613647 496.687469,1029.771729 
	C484.248749,1029.826416 471.800720,1029.310425 459.368286,1028.786011 
	C448.643280,1028.333618 437.931549,1027.539185 427.221222,1026.791748 
	C425.568939,1026.676392 423.955688,1026.001709 421.363342,1025.340698 
	C426.572540,1019.267639 430.907990,1013.912170 435.562225,1008.849792 
	C445.331696,998.223633 455.707489,988.123901 465.036469,977.130981 
	C479.876282,959.643982 494.956207,942.239624 508.246979,923.597229 
	C519.000977,908.513123 524.896729,890.648743 529.091919,872.558167 
	C534.091614,850.998596 538.495728,829.301025 543.191284,807.670471 
	C543.382996,806.787231 543.916138,805.978149 544.863831,803.840637 
	C546.189209,806.403687 547.407043,807.898376 547.761475,809.575562 
	C551.863892,828.987305 555.325684,848.549561 559.973694,867.826904 
	C565.568176,891.029663 573.472229,913.506836 587.650635,933.062439 
	C595.290405,943.599548 603.927368,953.416626 612.182678,963.502625 
	C614.696228,966.573608 617.437378,969.458252 620.325562,972.679199 
z"/>
</svg>